# xmcd
#
# Track frame offsets: 
#        150
#        29478
#        65273
#        93713
#        133913
#        161527
#        200031
#        232272
#        264632
#        308407
#
# Disc length: 4751 seconds
#
# Revision: 1
# Processed by: cddbd v1.5.2PL0 Copyright (c) Steve Scherf et al.
# Submitted via: ExactAudioCopy v1.3
#
DISCID=91128d0a
DTITLE=Various Artist - Akella Presents - vol.89 - Long Time Blues  C
DTITLE=D2
DYEAR=2016
DGENRE=Blues
TTITLE0=Jimmy Morello - Your Love Is Killing Me
TTITLE1=Eric Clapton - Double Trouble
TTITLE2=Leadfoot Rivet - Can't Stand No More Heartaches
TTITLE3=Twelve Bar Blues Band - Life Is Hard
TTITLE4=Tinsley Ellis - In From The Cold
TTITLE5=Snowy White - Midnight Blues
TTITLE6=Ian Parker - Love So Cold
TTITLE7=Jay Gordon - Winds of Thor
TTITLE8=Back Door Slam - Red House
TTITLE9=Doc Holliday - Bad company
EXTD=
EXTT0=
EXTT1=
EXTT2=
EXTT3=
EXTT4=
EXTT5=
EXTT6=
EXTT7=
EXTT8=
EXTT9=
PLAYORDER=
